<?xml version="1.0"?>
<svg xmlns="http://www.w3.org/2000/svg" xmlns:xlink="http://www.w3.org/1999/xlink" xmlns:svgjs="http://svgjs.com/svgjs" version="1.1" width="512" height="512" x="0" y="0" viewBox="0 0 512.002 512.002" style="enable-background:new 0 0 512 512" xml:space="preserve" class=""><g><g xmlns="http://www.w3.org/2000/svg"><path d="m402.535 122.039c27.563-20.422 45.465-53.177 45.465-90.037 0-8.836-7.164-16-16-16h-80c-42.425 0-79.415 23.711-98.417 58.577-12.43-24.388-29.296-40.432-44.599-50.817-31.198-21.17-62.525-23.625-63.844-23.72-8.833-.636-16.506 6.002-17.135 14.817-.63 8.814 5.969 16.467 14.783 17.097 3.559.287 78.868 7.478 94.409 94.609-18.821-4.031-31.114-14.564-77.197-14.564-71.873 0-136 55.51-136 163.2 0 111.368 91.474 236.8 152 236.8 58.071 0 54.676-16.355 80-16.355 25.417 0 21.832 16.355 80 16.355 60.573 0 152-125.333 152-236.8.001-83.061-37.379-133.015-85.465-153.162zm-50.534-74.037h62.393c-7.434 36.47-39.759 64-78.393 64h-62.393c7.434-36.471 39.759-64 78.393-64zm56.696 368.578c-27.816 41.637-57.626 63.421-72.696 63.421-28.275 0-37.15-4.228-45.732-8.316-7.91-3.768-16.875-8.039-34.268-8.039s-26.357 4.271-34.268 8.039c-8.582 4.088-17.457 8.316-45.732 8.316-33.595 0-120-100.472-120-204.8 0-96.839 56.024-131.2 104-131.2 45.876 0 50.019 11.803 79.993 15.438.026 10.159 7.73 16.562 16.007 16.562 8.303 0 16.018-6.446 15.992-16.56 30.234-3.663 33.975-15.44 80.008-15.44 47.976 0 104 34.361 104 131.2 0 44.85-17.242 96.381-47.304 141.379z" fill="#16a085" data-original="#000000" style="" class=""/></g></g></svg>
