<svg width="105" height="147" viewBox="0 0 105 147" fill="none" xmlns="http://www.w3.org/2000/svg">
<path d="M0 0V147H105V0H0ZM103.744 145.742H1.22871V1.23306H103.744V145.742Z" fill="white"/>
<path d="M15.9333 60.7813C21.0544 62.8742 25.0021 65.996 28.655 69.5513C30.8846 71.7243 32.8877 74.0886 34.6644 76.6443C36.441 79.198 37.96 81.9001 39.2212 84.7447C41.3005 89.3874 42.9873 94.1824 43.9069 99.1864C44.3579 101.642 45.5488 103.718 46.3884 106.082C47.263 105.45 47.1303 104.651 47.1342 103.968C47.1849 97.5522 48.3271 91.2109 48.3622 84.7935C48.3837 81.0254 48.4423 77.2573 48.5399 73.4892C48.5711 72.2514 47.9073 71.3807 47.2767 70.4338C43.7507 65.1878 41.4664 59.5083 41.1111 53.1104C40.8339 48.1006 41.9799 43.3973 43.8776 38.8366C45.5879 34.7171 47.9288 30.988 51.0174 27.7354C51.8238 26.9037 52.7277 26.2008 53.7312 25.6229C56.0897 27.1087 57.2006 29.4359 57.9288 31.8237C59.3833 36.5835 60.7656 41.3434 60.7988 46.4469C60.8632 56.2849 58.4482 65.0609 50.9784 71.9254C50.174 72.6634 50.0373 73.4912 50.0491 74.4518C50.1545 83.3936 49.5863 92.2984 48.6824 101.195C48.2568 105.391 48.3036 109.634 48.1553 113.855C48.1357 114.409 48.1084 114.991 48.6414 115.532C50.5899 113.548 52.7453 111.846 52.9835 108.651C53.1768 106.061 54.8226 103.942 56.2674 101.857C56.8628 100.998 57.0171 100.268 56.7203 99.2625C54.7484 92.5932 55.9804 86.2636 58.6161 79.9985C60.6075 75.2659 63.1026 70.918 66.449 67.0093C68.4951 64.6235 71.041 62.8898 73.3467 60.6758C74.895 61.6403 75.3772 63.0421 75.8555 64.4537C77.3998 68.9949 77.4272 73.7196 77.433 78.4209C77.433 80.6642 77.4565 82.9407 76.8532 85.3362C79.2644 85.3968 81.328 84.3093 83.5303 84.1629C85.6779 84.0203 87.847 83.995 90.225 83.911C91.0918 86.9958 90.225 89.692 88.8466 92.2769C85.1566 99.159 79.69 104.319 73.2823 108.685C68.6532 111.844 63.4872 112.853 58.1299 113.486C57.6653 113.54 57.1889 113.507 56.7184 113.521C50.5352 113.728 47.1264 117.527 47.6359 123.763C47.8448 126.326 47.2923 128.816 47.1381 131.342C46.8433 136.141 47.3177 140.95 46.6597 145.727C46.5992 146.155 46.7847 146.69 46.0877 147C45.2579 146.485 45.4493 145.612 45.4317 144.811C45.3204 139.532 45.4785 134.257 45.7441 128.985C46.0194 123.529 46.2751 118.072 46.5875 112.619C46.7144 110.344 45.5976 108.433 44.9006 106.4C44.5941 105.516 44.1646 104.665 43.8639 103.776C43.4286 102.496 42.6007 101.785 41.2614 101.48C39.6195 101.102 37.9014 100.772 36.3903 100.057C26.4995 95.3695 19.4202 87.9817 15.9997 77.5072C14.2484 72.1538 14.2484 66.5974 15.9333 60.7813ZM48.8952 70.1761C49.9846 63.0929 49.9553 56.3728 50.5001 49.682C51.8452 56.2947 50.7363 62.9445 50.7792 69.6392C53.3154 67.1889 55.5782 64.6274 56.8199 61.4782C60.9648 50.9354 60.1135 40.4688 55.871 30.1524C55.4552 29.1411 54.9417 28.0966 53.7312 27.7842C41.5406 38.4363 38.4695 56.5192 48.8952 70.1761ZM89.2566 85.6213C83.0988 85.0551 77.679 86.7576 72.5092 89.4538C65.1409 93.2844 59.276 98.7041 55.3107 106.084C54.4614 107.664 53.8386 109.278 53.946 111.578C57.062 109.516 59.9515 107.822 62.6926 105.856C65.4338 103.89 68.1378 101.82 70.7344 99.6218C73.2354 97.4956 75.0336 94.6432 77.9016 92.9466C72.6692 101.096 64.7407 106.26 56.9683 111.693C61.3631 112.008 65.5665 111.393 69.2897 109.331C76.9059 105.108 83.3722 99.571 87.5873 91.7498C88.5811 89.9067 89.4577 88.052 89.2566 85.6213ZM17.1516 62.6321C14.9844 70.8692 16.9798 79.9887 22.4581 87.0114C27.4464 93.3995 34.9728 99.612 39.8225 99.1922C39.598 98.3215 38.8756 97.8353 38.3368 97.2125C33.655 91.7986 29.0825 86.3027 25.4316 80.1097C24.9396 79.2741 24.2953 78.4815 24.7248 77.2983C29.8635 85.0043 35.3887 92.3375 42.2161 98.6046C38.8151 83.2902 31.3687 70.8282 17.1516 62.6321ZM68.5419 75.1585C69.1628 76.6755 68.5673 78.091 68.3291 79.526C67.8078 82.6752 67.2416 85.8204 66.7379 88.9716C66.6442 89.5612 66.3065 90.3089 67.1889 90.6721C68.9265 89.7232 70.5861 88.5928 72.4096 87.8821C74.5474 87.0504 75.4572 85.592 75.7286 83.4424C76.4158 78.1749 76.3026 72.925 75.3889 67.6927C75.0843 65.9609 74.729 64.2116 73.2979 62.6399C71.2128 64.3775 69.2682 66.1171 67.5423 68.0714C63.9519 72.1382 61.3709 76.8298 59.3814 81.8454C57.4856 86.6365 56.4489 91.5721 57.3939 96.744C57.5208 97.4136 57.3568 98.3 58.3564 98.5909C59.6899 97.9779 60.2658 96.4433 61.4294 95.7678C64.9242 93.7334 65.1858 90.3246 65.7461 86.9001C66.3943 82.9407 66.9878 78.95 68.5419 75.1605V75.1585Z" fill="white"/>
</svg>
