<?xml version="1.0"?>
<svg xmlns="http://www.w3.org/2000/svg" xmlns:xlink="http://www.w3.org/1999/xlink" xmlns:svgjs="http://svgjs.com/svgjs" version="1.1" width="512" height="512" x="0" y="0" viewBox="0 0 511 511" style="enable-background:new 0 0 512 512" xml:space="preserve" class=""><g><path xmlns="http://www.w3.org/2000/svg" d="m477.759 284.379c-20.312-20.313-53.363-20.318-73.678-.013 0 0-2.003 2.002-5.429 5.427-15.528-41.193-53.049-71.241-97.339-76.842v-32.951h47.5c48.248 0 87.5-39.252 87.5-87.5v-32.5h-77.5c-21.991 0-42.111 8.158-57.5 21.602v-81.602h-30v36.602c-15.388-13.445-35.508-21.602-57.5-21.602h-77.5v32.5c0 48.248 39.253 87.5 87.5 87.5h47.5v77.947c-48.574 6.112-88.389 41.107-100.935 88.053h-22.602l-39.809 36.526v-36.526h-90v210h90v-30h246.861l122.93-122.931c20.364-20.363 20.368-53.323.001-73.69zm-118.946-194.379h47.5v2.5c0 31.706-25.794 57.5-57.5 57.5h-47.5v-2.5c0-31.706 25.795-57.5 57.5-57.5zm-135 15c-31.705 0-57.5-25.794-57.5-57.5v-2.5h47.5c31.706 0 57.5 25.794 57.5 57.5v2.5zm62.5 137c42.865 0 79.73 30.539 88.162 71.958-13.076 13.07-28.299 28.286-40.876 40.856.726-29.515-23.067-53.814-52.484-53.814h-79.275c12.783-34.639 46.342-59 84.473-59zm-238.346 239v-150h30v150zm408.579-144.144-114.144 114.144h-234.435v-72.76l51.487-47.24h121.661c12.407 0 22.5 10.093 22.5 22.5s-10.093 22.5-22.5 22.5h-68.148v30h111.86c13.605-13.599 92.268-92.225 100.462-100.415 8.616-8.614 22.639-8.61 31.256.008v.001c8.64 8.637 8.641 22.621.001 31.262z" fill="#16a085" data-original="#000000" style="" class=""/></g></svg>
