<?xml version="1.0" encoding="UTF-8"?>
<svg xmlns="http://www.w3.org/2000/svg" xmlns:xlink="http://www.w3.org/1999/xlink" width="375pt" height="374.999991pt" viewBox="0 0 375 374.999991" version="1.2">
<defs>
<clipPath id="clip1">
  <path d="M 111 91.75 L 264 91.75 L 264 334.75 L 111 334.75 Z M 111 91.75 "/>
</clipPath>
</defs>
<g id="surface1">
<path style=" stroke:none;fill-rule:nonzero;fill:rgb(32.939148%,32.939148%,32.939148%);fill-opacity:1;" d="M 82.226562 40.5625 L 82.226562 333.945312 L 293.195312 333.945312 L 293.195312 40.5625 Z M 290.671875 331.433594 L 84.695312 331.433594 L 84.695312 43.023438 L 290.671875 43.023438 Z M 290.671875 331.433594 "/>
<g clip-path="url(#clip1)" clip-rule="nonzero">
<path style=" stroke:none;fill-rule:nonzero;fill:rgb(32.939148%,32.939148%,32.939148%);fill-opacity:1;" d="M 114.105469 162.171875 C 124.351562 166.359375 132.25 172.605469 139.558594 179.71875 C 144.019531 184.066406 148.027344 188.796875 151.582031 193.910156 C 155.136719 199.019531 158.175781 204.425781 160.699219 210.117188 C 164.859375 219.40625 168.234375 229 170.074219 239.011719 C 170.976562 243.925781 173.359375 248.078125 175.039062 252.808594 C 176.789062 251.542969 176.523438 249.945312 176.53125 248.578125 C 176.632812 235.742188 178.917969 223.054688 178.988281 210.214844 C 179.03125 202.675781 179.148438 195.136719 179.34375 187.597656 C 179.40625 185.121094 178.078125 183.378906 176.816406 181.484375 C 169.761719 170.988281 165.191406 159.625 164.480469 146.824219 C 163.925781 136.800781 166.21875 127.390625 170.015625 118.265625 C 173.4375 110.023438 178.121094 102.5625 184.300781 96.054688 C 185.914062 94.390625 187.722656 92.984375 189.730469 91.828125 C 194.449219 94.800781 196.671875 99.457031 198.128906 104.234375 C 201.039062 113.757812 203.804688 123.28125 203.871094 133.492188 C 204 153.175781 199.167969 170.734375 184.222656 184.46875 C 182.613281 185.945312 182.339844 187.601562 182.363281 189.523438 C 182.574219 207.414062 181.4375 225.230469 179.628906 243.03125 C 178.777344 251.425781 178.871094 259.914062 178.574219 268.359375 C 178.535156 269.46875 178.480469 270.632812 179.546875 271.714844 C 183.445312 267.746094 187.757812 264.339844 188.234375 257.949219 C 188.621094 252.765625 191.914062 248.527344 194.804688 244.355469 C 195.996094 242.636719 196.304688 241.175781 195.710938 239.164062 C 191.765625 225.820312 194.230469 213.15625 199.503906 200.621094 C 203.488281 191.152344 208.480469 182.453125 215.175781 174.632812 C 219.269531 169.859375 224.363281 166.390625 228.976562 161.960938 C 232.074219 163.890625 233.039062 166.695312 233.996094 169.519531 C 237.085938 178.605469 237.140625 188.058594 237.152344 197.464844 C 237.152344 201.953125 237.199219 206.507812 235.992188 211.300781 C 240.816406 211.421875 244.945312 209.246094 249.351562 208.953125 C 253.648438 208.667969 257.988281 208.617188 262.746094 208.449219 C 264.480469 214.621094 262.746094 220.015625 259.988281 225.1875 C 252.605469 238.957031 241.667969 249.28125 228.847656 258.015625 C 219.585938 264.335938 209.25 266.355469 198.53125 267.621094 C 197.601562 267.730469 196.648438 267.664062 195.707031 267.691406 C 183.335938 268.105469 176.515625 275.707031 177.535156 288.183594 C 177.953125 293.3125 176.847656 298.292969 176.539062 303.347656 C 175.949219 312.949219 176.898438 322.570312 175.582031 332.128906 C 175.460938 332.984375 175.832031 334.054688 174.4375 334.675781 C 172.777344 333.644531 173.160156 331.898438 173.125 330.296875 C 172.902344 319.734375 173.21875 309.179688 173.75 298.632812 C 174.300781 287.714844 174.8125 276.796875 175.4375 265.886719 C 175.691406 261.335938 173.457031 257.511719 172.0625 253.445312 C 171.449219 251.675781 170.589844 249.972656 169.988281 248.195312 C 169.117188 245.632812 167.460938 244.210938 164.78125 243.601562 C 161.496094 242.84375 158.058594 242.183594 155.035156 240.753906 C 135.246094 231.375 121.082031 216.59375 114.238281 195.636719 C 110.734375 184.925781 110.734375 173.808594 114.105469 162.171875 Z M 180.054688 180.96875 C 182.234375 166.796875 182.175781 153.351562 183.265625 139.964844 C 185.957031 153.195312 183.738281 166.5 183.824219 179.894531 C 188.898438 174.992188 193.425781 169.867188 195.910156 163.566406 C 204.203125 142.472656 202.5 121.53125 194.011719 100.890625 C 193.179688 98.867188 192.152344 96.777344 189.730469 96.152344 C 165.339844 117.464844 159.195312 153.644531 180.054688 180.96875 Z M 260.808594 211.871094 C 248.488281 210.738281 237.644531 214.144531 227.300781 219.539062 C 212.558594 227.203125 200.824219 238.046875 192.890625 252.8125 C 191.191406 255.972656 189.945312 259.203125 190.160156 263.804688 C 196.394531 259.679688 202.175781 256.289062 207.660156 252.355469 C 213.144531 248.421875 218.554688 244.28125 223.75 239.882812 C 228.753906 235.628906 232.351562 229.921875 238.089844 226.527344 C 227.621094 242.832031 211.757812 253.164062 196.207031 264.035156 C 205 264.664062 213.410156 263.433594 220.859375 259.308594 C 236.097656 250.859375 249.035156 239.78125 257.46875 224.132812 C 259.457031 220.445312 261.210938 216.734375 260.808594 211.871094 Z M 116.542969 165.875 C 112.207031 182.355469 116.199219 200.601562 127.160156 214.652344 C 137.140625 227.433594 152.199219 239.863281 161.902344 239.023438 C 161.453125 237.28125 160.007812 236.308594 158.929688 235.0625 C 149.5625 224.230469 140.414062 213.234375 133.109375 200.84375 C 132.125 199.171875 130.835938 197.585938 131.695312 195.21875 C 141.976562 210.636719 153.03125 225.308594 166.691406 237.847656 C 159.886719 207.207031 144.988281 182.273438 116.542969 165.875 Z M 219.363281 190.9375 C 220.605469 193.972656 219.414062 196.804688 218.9375 199.675781 C 217.894531 205.976562 216.761719 212.269531 215.753906 218.574219 C 215.566406 219.753906 214.890625 221.25 216.65625 221.976562 C 220.132812 220.078125 223.453125 217.816406 227.101562 216.394531 C 231.378906 214.730469 233.199219 211.8125 233.742188 207.511719 C 235.117188 196.972656 234.890625 186.46875 233.0625 176 C 232.453125 172.535156 231.742188 169.035156 228.878906 165.890625 C 224.707031 169.367188 220.816406 172.847656 217.363281 176.757812 C 210.179688 184.894531 205.015625 194.28125 201.035156 204.316406 C 197.242188 213.902344 195.167969 223.777344 197.058594 234.125 C 197.3125 235.464844 196.984375 237.238281 198.984375 237.820312 C 201.652344 236.59375 202.804688 233.523438 205.132812 232.171875 C 212.125 228.101562 212.648438 221.28125 213.769531 214.429688 C 215.066406 206.507812 216.253906 198.523438 219.363281 190.941406 Z M 219.363281 190.9375 "/>
</g>
</g>
</svg>
